<svg width="65" height="65" viewBox="0 0 65 65" fill="none" xmlns="http://www.w3.org/2000/svg">
<path d="M32.5 0C26.0721 0 19.7886 1.90609 14.444 5.47724C9.09938 9.04838 4.93378 14.1242 2.47393 20.0628C0.0140818 26.0014 -0.629526 32.536 0.624493 38.8404C1.87851 45.1448 4.97384 50.9357 9.51904 55.481C14.0642 60.0262 19.8552 63.1215 26.1596 64.3755C32.464 65.6295 38.9986 64.9859 44.9372 62.5261C50.8758 60.0662 55.9516 55.9006 59.5228 50.556C63.0939 45.2114 65 38.9279 65 32.5C65 23.8805 61.5759 15.614 55.481 9.51903C49.386 3.4241 41.1195 0 32.5 0Z" fill="#07111E"/>
<path fill-rule="evenodd" clip-rule="evenodd" d="M51.5824 23.5922C49.8686 23.5903 48.1906 24.082 46.749 25.0087C45.3075 25.9354 44.1634 27.2578 43.4537 28.8177C42.744 30.3776 42.4987 32.1089 42.7472 33.8045C42.9956 35.5002 43.7274 37.0883 44.8548 38.379C45.9822 39.6696 47.4576 40.6082 49.1045 41.0823C50.7513 41.5564 52.4999 41.546 54.141 41.0524C55.7821 40.5588 57.2463 39.6028 58.3583 38.2989C59.4704 36.9949 60.1832 35.3982 60.4115 33.6997H55.3199C55.0363 34.5918 54.443 35.353 53.6472 35.8458C52.8515 36.3387 51.9057 36.5307 50.9807 36.3872C50.0558 36.2437 49.2126 35.7741 48.6036 35.0633C47.9946 34.3525 47.6598 33.4474 47.6598 32.5113C47.6598 31.5753 47.9946 30.6701 48.6036 29.9593C49.2126 29.2486 50.0558 28.779 50.9807 28.6355C51.9057 28.492 52.8515 28.684 53.6472 29.1769C54.443 29.6697 55.0363 30.4309 55.3199 31.3229H60.4115C60.124 29.1843 59.0709 27.2225 57.4475 25.801C55.824 24.3795 53.7402 23.5948 51.5824 23.5922ZM13.3754 36.433C12.5997 36.433 11.8414 36.203 11.1964 35.772C10.5514 35.3411 10.0487 34.7285 9.75179 34.0119C9.45491 33.2952 9.37721 32.5066 9.5285 31.7458C9.6798 30.985 10.0533 30.2861 10.6018 29.7376C11.1502 29.189 11.8491 28.8154 12.6099 28.664C13.3707 28.5126 14.1593 28.5902 14.876 28.887C15.5927 29.1838 16.2053 29.6864 16.6363 30.3313C17.0674 30.9763 17.2975 31.7345 17.2976 32.5102C17.2977 33.0254 17.1963 33.5354 16.9992 34.0114C16.8021 34.4873 16.5132 34.9197 16.149 35.284C15.7848 35.6483 15.3524 35.9372 14.8765 36.1344C14.4006 36.3315 13.8905 36.433 13.3754 36.433ZM22.2945 41.2787V32.5113C22.2946 30.7473 21.7716 29.0228 20.7916 27.556C19.8116 26.0891 18.4186 24.9459 16.7888 24.2707C15.159 23.5956 13.3657 23.4189 11.6355 23.7631C9.90531 24.1072 8.31603 24.9567 7.06864 26.204C5.82125 27.4514 4.97178 29.0407 4.62765 30.7709C4.28353 32.5011 4.4602 34.2944 5.13533 35.9242C5.81046 37.554 6.95373 38.947 8.42055 39.927C9.88736 40.907 11.6119 41.43 13.3759 41.4299C14.876 41.4081 16.3125 40.8201 17.3973 39.7837V41.2787H22.2945ZM32.4594 28.5891C33.2353 28.5889 33.9938 28.8188 34.639 29.2497C35.2843 29.6806 35.7872 30.2932 36.0843 31.01C36.3814 31.7267 36.4592 32.5155 36.308 33.2765C36.1567 34.0375 35.7832 34.7366 35.2346 35.2853C34.6861 35.834 33.9871 36.2077 33.2262 36.3592C32.4652 36.5106 31.6764 36.433 30.9595 36.1361C30.2427 35.8393 29.63 35.3365 29.1989 34.6913C28.7678 34.0462 28.5377 33.2878 28.5377 32.5119C28.5376 31.9968 28.639 31.4868 28.8361 31.0109C29.0331 30.535 29.322 30.1026 29.6861 29.7383C30.0503 29.374 30.4826 29.0851 30.9585 28.8879C31.4343 28.6907 31.9443 28.5892 32.4594 28.5891ZM23.5408 19.2031V32.5113C23.5409 34.2752 24.0641 35.9995 25.0441 37.4661C26.0242 38.9326 27.4171 40.0757 29.0468 40.7506C30.6764 41.4255 32.4696 41.6021 34.1996 41.2579C35.9296 40.9137 37.5187 40.0643 38.7659 38.817C40.0132 37.5697 40.8625 35.9805 41.2066 34.2505C41.5507 32.5205 41.374 30.7273 40.699 29.0977C40.0239 27.4681 38.8808 26.0752 37.4142 25.0953C35.9476 24.1153 34.2233 23.5922 32.4594 23.5922C31.061 23.6043 29.6972 24.0276 28.5377 24.8094V19.2031H23.5408Z" fill="#F0F0F0"/>
</svg>
