<svg width="81" height="53" viewBox="0 0 81 53" fill="none" xmlns="http://www.w3.org/2000/svg">
<path d="M0.269103 27.8564H7.10225L16.7403 43.7073H16.8V28.3201H14.1357V27.8564H19.9276V28.3201H17.2646V51.5688H16.4808L3.45334 30.2194H3.39717V51.1003H6.05796V51.5675H0.269103V51.1003H2.93338V28.3201H0.269103V27.8564ZM19.4939 27.8564H36.8047V33.553H36.4298C36.0248 32.0853 34.7802 28.3227 30.9562 28.3227H26.3527V38.613H27.9727C30.8073 38.613 31.7919 36.6496 32.3419 33.6505H32.7212V44.0071H32.3419C31.8219 41.4115 30.9566 39.0784 28.2919 39.0784H26.3527V51.099H31.0995C34.6587 51.099 36.8326 48.1346 37.613 44.2702H37.9879V51.5662H19.4895V51.1003H22.1538V28.3201H19.4939V27.8564ZM36.6597 27.8564H45.5474V28.3201H43.4336L48.6437 45.87H48.7029L51.7426 35.9467L49.4877 28.3201H47.923V27.8564H56.5765V28.3201H53.8865L59.1258 45.906H59.185L64.5388 28.3201H62.0496V27.8564H67.3781V28.3201H65.0335L57.5894 52.5H56.7502L52.0008 36.7129H51.9416L47.0821 52.5H46.242L39.0596 28.3201H36.6597V27.8564ZM24.609 12.7167C24.6145 15.1388 23.8978 17.5081 22.5497 19.5249C21.2016 21.5416 19.2827 23.1152 17.0357 24.0465C14.7887 24.9778 12.3146 25.2251 9.92632 24.7569C7.53807 24.2888 5.34303 23.1263 3.61888 21.4165C1.89472 19.7068 0.718936 17.5266 0.240264 15.1517C-0.238407 12.7769 0.0015438 10.3141 0.929762 8.07504C1.85798 5.83594 3.43276 3.92109 5.45487 2.57275C7.47698 1.2244 9.85556 0.503146 12.2897 0.500226C13.9067 0.490435 15.5096 0.799431 17.006 1.40938C18.5023 2.01933 19.8624 2.91814 21.0078 4.05395C22.1531 5.18975 23.0611 6.54005 23.6792 8.02689C24.2973 9.51373 24.6133 11.1077 24.609 12.7167ZM0.875293 12.7167C1.92713 14.8449 3.55707 16.6373 5.58038 17.8908C7.60368 19.1442 9.93941 19.8086 12.3228 19.8086C14.7062 19.8086 17.0419 19.1442 19.0652 17.8908C21.0885 16.6373 22.7185 14.8449 23.7703 12.7167C22.7067 10.602 21.0725 8.82356 19.0507 7.58068C17.0289 6.3378 14.6993 5.6795 12.3228 5.6795C9.94628 5.6795 7.61668 6.3378 5.59486 7.58068C3.57305 8.82356 1.93886 10.602 0.875293 12.7167ZM18.5824 12.7124C18.6015 13.9523 18.2493 15.1699 17.5706 16.21C16.8918 17.25 15.9174 18.0656 14.7712 18.5526C13.6251 19.0397 12.3593 19.1763 11.1349 18.945C9.91047 18.7137 8.78297 18.125 7.89599 17.2539C7.009 16.3827 6.40266 15.2686 6.15422 14.0534C5.90577 12.8382 6.02646 11.5769 6.5009 10.4301C6.97535 9.28339 7.78208 8.30314 8.81834 7.61421C9.8546 6.92529 11.0735 6.55889 12.3198 6.56167C13.1371 6.5551 13.9478 6.70912 14.7052 7.01491C15.4627 7.3207 16.152 7.77224 16.7337 8.34364C17.3154 8.91505 17.7781 9.59508 18.0952 10.3448C18.4123 11.0944 18.5776 11.899 18.5815 12.7124M12.3245 24.9401C9.90078 24.943 7.53055 24.2308 5.51347 22.8936C3.49639 21.5564 1.923 19.6541 0.992189 17.4272C0.061377 15.2004 -0.185072 12.7489 0.283994 10.3827C0.753059 8.01649 1.91658 5.84178 3.62749 4.13345C5.3384 2.42511 7.51988 1.25985 9.89619 0.784955C12.2725 0.310058 14.737 0.546845 16.9781 1.46539C19.2192 2.38393 21.1363 3.94298 22.4871 5.94549C23.8379 7.94799 24.5618 10.304 24.5672 12.7158C24.5868 14.323 24.2839 15.9179 23.6761 17.4071C23.0683 18.8963 22.1679 20.2497 21.0277 21.3882C19.8875 22.5267 18.5304 23.4273 17.036 24.0372C15.5415 24.6471 13.9397 24.9541 12.3245 24.9401ZM12.3245 5.63217C9.93979 5.63343 7.60238 6.29467 5.57362 7.54196C3.54487 8.78924 1.90472 10.5734 0.836535 12.695C1.88384 14.838 3.51482 16.6454 5.54377 17.9112C7.57273 19.1771 9.91812 19.8506 12.3129 19.8552C14.7077 19.8597 17.0556 19.195 19.0894 17.9368C21.1232 16.6786 22.761 14.8774 23.8165 12.7384C22.7573 10.6055 21.1199 8.80991 19.0892 7.55433C17.0585 6.29876 14.7154 5.63327 12.3245 5.63304M12.3202 18.8457C11.1076 18.8321 9.92618 18.462 8.92443 17.782C7.92267 17.102 7.14532 16.1424 6.69013 15.024C6.23493 13.9056 6.12221 12.6782 6.36614 11.4962C6.61006 10.3142 7.19975 9.23036 8.06104 8.38095C8.92233 7.53153 10.0168 6.95446 11.2068 6.72231C12.3968 6.49016 13.6292 6.61328 14.749 7.0762C15.8689 7.53912 16.8262 8.32117 17.5006 9.32401C18.175 10.3269 18.5364 11.5057 18.5393 12.7124C18.5265 14.3447 17.8655 15.9057 16.7003 17.0547C15.5352 18.2038 13.9606 18.8476 12.3202 18.8457ZM36.1227 0.818724C34.1422 0.818724 31.6469 2.12955 29.7712 4.16101C28.1347 5.93767 26.1824 9.04726 26.1824 13.7727C26.1824 19.8849 31.2035 24.6225 35.5213 24.6225C36.7984 24.6303 38.0584 24.3306 39.1938 23.7489L39.2151 23.7407C39.8777 23.3818 40.614 23.1787 41.3677 23.147C41.7292 23.156 42.0823 23.2575 42.3929 23.4418C42.7035 23.6261 42.9611 23.8869 43.141 24.1991L43.32 24.4916V15.1386H43.0587L43.0417 15.2253C42.4703 18.8219 40.0961 24.1796 35.8998 24.1796C31.7396 24.1796 30.887 20.1202 30.887 14.0293C30.887 8.08656 31.5136 1.26202 36.3901 1.26202C40.7336 1.26202 42.5918 7.63719 43.0613 9.58849L43.0783 9.66042H43.3308V1.14112L43.1566 1.39506C42.7351 2.00172 42.1381 2.12479 41.3154 2.12479C40.6923 2.07024 40.0844 1.90344 39.5212 1.63252L39.4912 1.61995C38.4349 1.12733 37.2887 0.854965 36.1227 0.818724ZM58.5444 11.8968C59.9471 11.5068 63.2628 10.4079 63.2628 6.84507C63.2628 5.09787 62.398 3.62585 60.7693 2.59062C59.2773 1.63729 57.1931 1.11469 54.9042 1.11469H44.322V1.57359H48.0009V23.872H44.322V24.3335H55.4155C60.6373 24.3335 64.1469 21.6069 64.1469 17.5518C64.1469 14.7694 62.3139 12.9199 58.5457 11.8977M55.732 11.6641H52.7098V1.57359H53.6243C57.7122 1.57359 58.9868 2.33278 58.9868 6.4217C58.9868 10.8035 57.8916 11.6052 55.7386 11.6052M52.712 12.1222H55.2195C57.484 12.1222 59.6954 12.6183 59.6954 17.7468C59.6954 22.9004 58.2801 23.8676 55.1045 23.8676H52.7094L52.712 12.1222ZM67.9852 23.248C68.7237 23.2895 69.4477 23.4695 70.1191 23.7784L70.1831 23.8035C71.3868 24.3324 72.6864 24.6111 74.0023 24.6225C77.1721 24.6225 81 21.1866 81 16.9235C81 12.4485 77.6407 11.337 74.3929 10.2597C71.5705 9.32242 68.9106 8.43972 68.9106 5.34357C68.9106 4.11768 69.2821 1.26332 72.6962 1.26332C76.903 1.26332 78.8984 7.87596 78.8984 9.50919V9.60712H79.171L79.1797 0.920557L79.0003 1.15326C78.4973 1.81929 77.4918 1.87042 77.193 1.87042H77.0868C76.5832 1.81512 76.0905 1.68664 75.6244 1.48909C74.6973 1.09138 73.7049 0.865664 72.6962 0.823058C68.7769 0.823058 66.353 4.71654 66.353 8.32619C66.353 12.7245 69.691 13.9209 72.9218 15.0788C75.6588 16.0547 78.246 16.9751 78.246 19.8805C78.246 22.8324 76.0124 24.1562 73.7963 24.1562C68.3963 24.1562 66.4214 15.9442 66.4214 15.2526V15.2019H66.1536V24.2624L66.3238 24.0631C66.5035 23.7939 66.7515 23.5769 67.0426 23.4338C67.3338 23.2907 67.6577 23.2268 67.9817 23.2484M67.8711 50.579C68.6167 50.6223 69.3473 50.8064 70.0237 51.1216L70.0877 51.1471C71.3 51.6899 72.612 51.9773 73.9413 51.9913C77.1382 51.9913 81 48.4622 81 44.0808C81 39.4827 77.6111 38.3374 74.3332 37.2342C71.4904 36.2713 68.8026 35.3639 68.8026 32.1824C68.8026 30.9231 69.1741 27.9877 72.6183 27.9877C76.8634 27.9877 78.8757 34.7828 78.8757 36.4576V36.5599H79.1483L79.157 27.6333L78.9781 27.8707C78.4703 28.5537 77.4561 28.6074 77.153 28.6074H77.0423C76.5337 28.5514 76.0366 28.4184 75.5682 28.2131C74.6345 27.8053 73.6327 27.5737 72.6139 27.5301C68.6619 27.5301 66.2154 31.5298 66.2154 35.2374C66.2154 39.7549 69.583 40.9846 72.8395 42.1707C75.6022 43.1717 78.2064 44.1207 78.2064 47.1033C78.2064 50.1366 75.9515 51.4977 73.7209 51.4977C68.273 51.4977 66.282 43.0612 66.282 42.3544V42.3037H66.0094V51.6099L66.1797 51.4019C66.3644 51.1299 66.6173 50.9105 66.9133 50.7655C67.2093 50.6205 67.5383 50.5549 67.8676 50.5751" fill="black"/>
</svg>
