<svg width="132" height="57" viewBox="0 0 132 57" fill="none" xmlns="http://www.w3.org/2000/svg">
<path fill-rule="evenodd" clip-rule="evenodd" d="M62.9277 12.0295C60.3821 12.0295 58.3263 14.3768 58.3263 16.9999L58.3194 39.9305C58.3034 41.1738 58.7796 42.3726 59.6435 43.2635C60.5073 44.1544 61.6881 44.6644 62.9263 44.6817C64.1787 44.6874 65.3834 44.2003 66.2821 43.3247C67.1809 42.4491 67.7022 41.2547 67.7341 39.9977V16.9999C67.7341 14.3768 65.472 12.0295 62.9287 12.0295M62.6489 0.517733C68.1627 0.517733 73.5527 2.15938 78.1373 5.23509C82.7219 8.31079 86.2952 12.6824 88.4052 17.7971C90.5153 22.9118 91.0674 28.5399 89.9917 33.9697C88.916 39.3994 86.2608 44.3869 82.3619 48.3016C78.4631 52.2162 73.4956 54.8821 68.0877 55.9621C62.6798 57.0422 57.0744 56.4879 51.9802 54.3693C46.8861 52.2507 42.5321 48.663 39.4688 44.0599C36.4054 39.4568 34.7704 34.045 34.7704 28.5089C34.7701 24.8329 35.4911 21.193 36.892 17.7968C38.2929 14.4007 40.3465 11.3149 42.9353 8.7156C45.5241 6.11633 48.5975 4.05453 51.9799 2.64793C55.3624 1.24133 58.9877 0.517488 62.6489 0.517733ZM100.353 0.5L107.127 12.484L113.9 0.5H132L116.205 28.5495L132 56.5H113.809L107.127 44.6686L100.445 56.5H82.2513L98.0486 28.5495L82.2513 0.5H100.353ZM34.6807 0.5L35.7032 15.7745H16.8839V23.1011H32.2312V38.4255H16.8839V56.5H0V0.5H34.6807Z" fill="#003998"/>
</svg>
