<svg width="65" height="63" viewBox="0 0 65 63" fill="none" xmlns="http://www.w3.org/2000/svg">
<path d="M32.5 17.3426C31.4845 14.8123 29.0161 12.0802 24.3926 12.4558C18.5031 13.0952 16.6671 18.7427 17.5574 22.1073C16.0792 21.109 14.3089 20.6349 12.5296 20.761C10.7503 20.887 9.06457 21.6058 7.74182 22.8026C3.24667 27.3084 5.65115 33.4019 8.12223 34.8639C6.24174 34.7804 4.3951 35.3839 2.92683 36.5618C1.45856 37.7397 0.468959 39.4115 0.142642 41.2653C-0.869658 47.2422 3.68569 50.7266 8.12223 50.7266H57.3184C62.4487 50.7266 65.2953 46.2885 64.9757 42.1029C64.4722 36.6402 59.4736 34.5442 56.7467 34.9928C59.0249 33.7221 62.0677 27.7517 57.4394 23.0583C53.7668 19.5654 49.0852 20.8361 47.4394 22.3598C48.3281 19.4412 46.8731 13.409 40.9181 12.4547C40.524 12.4093 40.1277 12.3856 39.731 12.3839C38.1627 12.3691 36.6277 12.8369 35.3342 13.7239C34.0407 14.6109 33.0513 15.8742 32.5 17.3426Z" fill="white"/>
<path d="M53.3886 23.8863L35.8513 36.1356H57.4447C61.8749 36.1356 64.7216 31.568 63.4562 27.3761C63.0311 26.0372 62.199 24.8644 61.0758 24.0208C59.9526 23.1773 58.5943 22.705 57.1901 22.6699C55.8305 22.6891 54.5075 23.1124 53.3892 23.8857" fill="#0DB14B"/>
<path d="M45.6067 13.3517L36.8055 33.8523L55.4793 20.9689C59.7837 17.9161 59.0895 13.0346 56.6802 10.6216C56.0517 9.97889 55.3001 9.46942 54.4702 9.12366C53.6404 8.77791 52.7494 8.60297 51.8505 8.6093C49.5296 8.6093 47.0452 9.84004 45.6051 13.3511" fill="#0089D0"/>
<path d="M33.1927 7.38435H34.9636C34.9636 7.38435 35.9099 7.38435 36.0383 7.83029C35.3414 8.39984 33.4441 8.46964 33.694 11.5119L36.6718 31.5037L45.9796 9.35407C47.8822 4.40818 43.8879 0.277998 40.3443 0.151727C40.1791 0.139473 40.0129 0.129883 39.8413 0.129883C36.6606 0.129883 33.0163 2.44112 33.1948 7.38435" fill="#6460AA"/>
<path d="M24.6408 0.213821C21.6039 0.275625 17.0454 3.89007 19.0737 9.41244L28.4412 31.5067L31.7333 8.27013C32.4942 2.49629 28.1253 -0.169255 24.6408 0.213821Z" fill="#CC004C"/>
<path d="M8.56124 10.3046C5.96389 12.6558 5.01872 17.9837 9.70088 21.0995L28.3799 33.9131L19.3225 13.1641C17.4242 8.26725 12.2327 7.19954 8.56017 10.3052" fill="#F37021"/>
<path d="M8.05827 36.1357H29.3331L11.7915 23.8863C7.73913 21.2826 3.18218 22.8042 1.53693 27.1267C0.142619 32.0748 3.6228 36.1357 8.05827 36.1357Z" fill="#FCB711"/>
<path d="M31.6189 52.7675H35.5652C36.2506 52.8217 36.8904 53.1324 37.3567 53.6376C37.8231 54.1428 38.0817 54.8052 38.0811 55.4928C38.0803 56.2012 37.8167 56.8841 37.3413 57.4093C36.8659 57.9345 36.2125 58.2646 35.5077 58.3357H31.6183L31.6189 52.7675ZM31.5587 44.0298H34.8087C35.4444 44.0416 36.0511 44.2981 36.5025 44.7459C36.9539 45.1936 37.2153 45.7982 37.2323 46.4337C37.2589 47.0836 37.0391 47.7194 36.6169 48.2141C36.1946 48.7087 35.6011 49.0257 34.9552 49.1014H31.5587V44.0325M27.1189 40.3972V61.9672H37.5835C40.0673 61.9672 43.0206 59.4775 43.0206 56.2243C43.0443 55.0173 42.7135 53.8299 42.069 52.8091C41.4246 51.7883 40.4948 50.979 39.3949 50.4813C40.1769 49.9735 40.8143 49.272 41.245 48.4451C41.6758 47.6181 41.8853 46.6938 41.8532 45.7619C41.736 41.4245 37.7289 40.3978 36.3554 40.3978L27.1189 40.3972ZM11.0649 61.9672V49.5436L24.6303 62.7877V40.3972H20.0717V52.5033L6.50317 39.5203V61.9672H11.0649ZM43.7532 50.9486C43.8677 57.7699 48.7688 62.8698 55.0691 62.8698C56.6702 62.8599 58.2556 62.5539 59.7454 61.9672V57.5722C58.5164 58.3255 57.1035 58.725 55.6621 58.7268C51.8494 58.7268 48.252 55.903 48.4007 50.7733C48.498 48.8867 49.3113 47.1082 50.6748 45.8005C52.0383 44.4929 53.8492 43.7546 55.7383 43.7362C57.1666 43.7421 58.5611 44.1715 59.7454 44.9702V40.6935C58.3492 40.1199 56.855 39.8227 55.3456 39.8186C49.0587 39.8186 43.8741 45.1199 43.7532 50.9486Z" fill="black"/>
</svg>
